<svg width="40" height="40" viewBox="0 0 40 40" fill="none" xmlns="http://www.w3.org/2000/svg">
<path d="M36.1876 22.8699C35.8601 20.9354 34.8842 19.7045 34.1 18.7155C33.3967 17.8285 32.8399 17.1264 32.8308 16.157C33.2349 11.2085 32.062 7.08719 29.4381 4.23719C28.2072 2.90016 26.6706 1.86805 24.8711 1.16938C23.0058 0.445313 20.8492 0.078125 18.4617 0.078125C15.002 0.078125 11.8703 1.07977 9.40517 2.97477C7.16118 4.69969 5.49056 7.12172 4.57376 9.97898C3.59556 13.0278 3.54759 16.408 4.43892 19.497C5.36829 22.7177 7.23329 25.439 9.84165 27.3859C10.0304 31.3586 8.94087 34.4752 8.14025 36.7657C7.78962 37.7688 7.51267 38.5611 7.42212 39.2106C7.39712 39.3899 7.45103 39.5712 7.57009 39.7077C7.68868 39.8438 7.86048 39.9219 8.0411 39.9219H8.04235L25.1334 39.8886C25.4781 39.8879 25.7571 39.6083 25.7571 39.2636C25.7571 37.6987 25.2452 36.3105 24.8341 35.1951C24.1383 33.308 24.1424 32.9488 24.8639 32.633C25.2767 32.4524 26.5208 32.7543 27.5206 32.9967C29.3952 33.4513 31.3338 33.9215 32.2257 32.8115C32.2843 32.7385 32.3258 32.6534 32.3471 32.5622C32.7934 30.6516 33.2142 30.0457 33.4926 29.6448C33.7393 29.2895 33.9724 28.9538 33.9724 28.2152C33.9724 28.0201 33.8813 27.8362 33.7262 27.718C33.3156 27.4052 33.0234 27.1652 32.8524 27.0003C33.1098 26.8907 33.4937 26.7668 33.6508 26.716C33.9076 26.633 34.0821 26.3948 34.0838 26.1249L34.0968 23.8884L35.6874 23.5883C36.022 23.5252 36.2445 23.2057 36.1876 22.8699ZM33.3588 22.7557C33.0649 22.8112 32.8514 23.0671 32.8496 23.3662L32.8362 25.6683C32.125 25.9123 31.5621 26.1822 31.4644 26.7539C31.3603 27.3624 31.8499 27.8441 32.6976 28.5041C32.6652 28.6445 32.5963 28.7437 32.4656 28.9319C32.1421 29.3976 31.658 30.0948 31.1713 32.1027C30.653 32.4704 28.9582 32.0592 27.815 31.782C26.3909 31.4366 25.1611 31.1388 24.3625 31.488C23.4922 31.8689 23.0573 32.5047 23.0695 33.3776C23.0791 34.0491 23.3488 34.7805 23.661 35.6276C23.9952 36.5339 24.367 37.5421 24.4756 38.64L8.82423 38.6705C8.94923 38.2394 9.12649 37.732 9.32017 37.1782C10.1271 34.8695 11.3467 31.3805 11.0731 27.0168C11.0614 26.8293 10.9659 26.657 10.813 26.5476C5.90806 23.0387 3.83181 16.3826 5.76392 10.3609C7.57876 4.70477 12.3256 1.32812 18.4617 1.32812C22.8406 1.32812 26.2242 2.59172 28.5186 5.08383C30.9044 7.67523 31.964 11.478 31.583 16.0812C31.5815 16.0984 31.5809 16.1155 31.5809 16.1327C31.5809 17.5502 32.3288 18.4935 33.1207 19.4922C33.7885 20.3345 34.4762 21.2017 34.8238 22.4793L33.3588 22.7557ZM30.2682 14.0402C30.2682 14.3854 29.9884 14.6652 29.6432 14.6652H27.716C27.3709 14.6652 27.091 14.3854 27.091 14.0402C27.091 13.6951 27.3709 13.4152 27.716 13.4152H29.6432C29.9884 13.4152 30.2682 13.6951 30.2682 14.0402ZM25.8949 9.67844C25.7223 9.37953 25.8248 8.99727 26.1237 8.82469L27.7927 7.86109C28.0917 7.68836 28.4738 7.79102 28.6464 8.08984C28.8191 8.38875 28.7166 8.77102 28.4177 8.94359L26.7487 9.90719C26.6502 9.96406 26.5427 9.99102 26.4368 9.99102C26.2207 9.99102 26.0107 9.87898 25.8949 9.67844ZM22.4789 5.6375L23.4425 3.96852C23.615 3.66953 23.9974 3.56711 24.2963 3.73977C24.5952 3.91234 24.6977 4.29461 24.525 4.59352L23.5614 6.2625C23.4457 6.46297 23.2356 6.57508 23.0195 6.57508C22.9135 6.57508 22.8061 6.54805 22.7077 6.49125C22.4088 6.31859 22.3063 5.93641 22.4789 5.6375ZM28.6464 19.9748C28.5307 20.1752 28.3206 20.2873 28.1045 20.2873C27.9985 20.2873 27.8911 20.2603 27.7927 20.2035L26.1237 19.2399C25.8248 19.0673 25.7223 18.6851 25.8949 18.3862C26.0675 18.0872 26.4498 17.9848 26.7487 18.1574L28.4177 19.121C28.7166 19.2936 28.8191 19.6759 28.6464 19.9748ZM17.7288 4.69969V2.7725C17.7288 2.42734 18.0087 2.1475 18.3538 2.1475C18.699 2.1475 18.9788 2.42734 18.9788 2.7725V4.69969C18.9788 5.04484 18.699 5.32469 18.3538 5.32469C18.0087 5.32469 17.7288 5.04484 17.7288 4.69969ZM12.1827 4.59344C12.01 4.29453 12.1125 3.91227 12.4114 3.73969C12.7105 3.56703 13.0927 3.66961 13.2652 3.96844L14.2288 5.63742C14.4014 5.93633 14.2989 6.31859 14 6.49117C13.9016 6.54805 13.7941 6.575 13.6881 6.575C13.472 6.575 13.262 6.46289 13.1463 6.26242L12.1827 4.59344ZM9.02118 14.6573H7.094C6.74884 14.6573 6.469 14.3775 6.469 14.0323C6.469 13.6872 6.74884 13.4073 7.094 13.4073H9.02118C9.36634 13.4073 9.64618 13.6872 9.64618 14.0323C9.64618 14.3775 9.36634 14.6573 9.02118 14.6573ZM8.06134 8.08984C8.23392 7.79086 8.61618 7.68844 8.91509 7.86109L10.584 8.82469C10.8829 8.99727 10.9854 9.37953 10.8127 9.67844C10.697 9.87891 10.4869 9.99102 10.2709 9.99102C10.1649 9.99102 10.0574 9.96398 9.95899 9.90719L8.29009 8.94359C7.9911 8.77102 7.88868 8.38875 8.06134 8.08984ZM10.8127 18.3862C10.9853 18.6851 10.8828 19.0673 10.5839 19.2399L8.91501 20.2035C8.81657 20.2604 8.70907 20.2873 8.60314 20.2873C8.38704 20.2873 8.17704 20.1752 8.06126 19.9748C7.8886 19.6759 7.9911 19.2936 8.29001 19.121L9.95892 18.1574C10.2581 17.9848 10.6402 18.0873 10.8127 18.3862ZM18.3538 6.035C13.9117 6.035 10.2976 9.64906 10.2976 14.0912C10.2976 16.9159 11.8064 19.5695 14.2352 21.0166C14.517 21.1845 14.6659 21.4465 14.6659 21.7742V23.5862C14.6659 24.2738 15.0899 24.8635 15.6899 25.1096C15.7418 26.2395 16.677 27.1427 17.8195 27.1427H18.8882C20.0306 27.1427 20.9659 26.2395 21.0177 25.1096C21.6177 24.8635 22.0418 24.2738 22.0418 23.5862V21.7742C22.0418 21.4465 22.1907 21.1845 22.4724 21.0166C24.9013 19.5695 26.4101 16.9159 26.4101 14.0912C26.4101 9.64898 22.796 6.035 18.3538 6.035ZM21.8326 19.9427C21.1711 20.3369 20.7918 21.0044 20.7918 21.7741V22.2148H15.9159V21.7741C15.9159 21.0043 15.5367 20.3369 14.8752 19.9427C12.8227 18.7198 11.5476 16.4777 11.5476 14.0912C11.5476 10.3383 14.6009 7.285 18.3538 7.285C22.1068 7.285 25.1601 10.3383 25.1601 14.0912C25.1601 16.4777 23.8851 18.7198 21.8326 19.9427ZM18.3538 8.66664C15.3577 8.66664 12.9201 11.1041 12.9201 14.1003C12.9201 17.0965 15.3577 19.5341 18.3538 19.5341C21.35 19.5341 23.7876 17.0965 23.7876 14.1003C23.7876 11.1041 21.3499 8.66664 18.3538 8.66664ZM18.9788 16.645V16.9584C18.9788 17.3036 18.699 17.5834 18.3538 17.5834C18.0087 17.5834 17.7288 17.3036 17.7288 16.9584V16.6716C17.3726 16.5752 17.0536 16.3584 16.8323 16.0523C16.6299 15.7727 16.6927 15.382 16.9724 15.1797C17.252 14.9773 17.6427 15.04 17.845 15.3198C17.9167 15.4188 18.0309 15.4779 18.1505 15.4779H18.4657C18.6696 15.4779 18.842 15.3055 18.842 15.1016C18.842 14.8977 18.6696 14.7253 18.4657 14.7253H18.2419C17.3451 14.7253 16.6156 13.9958 16.6156 13.0991C16.6156 12.3815 17.0827 11.7709 17.7288 11.5556V11.2422C17.7288 10.897 18.0087 10.6172 18.3538 10.6172C18.699 10.6172 18.9788 10.897 18.9788 11.2422V11.529C19.3352 11.6255 19.6542 11.8424 19.8755 12.1485C20.0777 12.4283 20.0149 12.819 19.7351 13.0212C19.4552 13.2234 19.0647 13.1605 18.8624 12.8808C18.7909 12.7818 18.6767 12.7227 18.5572 12.7227H18.242C18.0381 12.7227 17.8657 12.8951 17.8657 13.0991C17.8657 13.303 18.0381 13.4753 18.242 13.4753H18.4658C19.3626 13.4753 20.092 14.2049 20.092 15.1016C20.092 15.8192 19.6249 16.4297 18.9788 16.645Z" fill="white"/>
</svg>
