<svg width="40" height="40" viewBox="0 0 40 40" fill="none" xmlns="http://www.w3.org/2000/svg">
<path d="M30.4 12.9805C30.4704 12.9218 30.5271 12.8483 30.566 12.7653C30.6049 12.6823 30.625 12.5917 30.625 12.5V4.375H31.25C31.4158 4.375 31.5747 4.30915 31.6919 4.19194C31.8092 4.07473 31.875 3.91576 31.875 3.75V1.25C31.875 1.08424 31.8092 0.925268 31.6919 0.808058C31.5747 0.690848 31.4158 0.625 31.25 0.625H8.75C8.58424 0.625 8.42527 0.690848 8.30806 0.808058C8.19085 0.925268 8.125 1.08424 8.125 1.25V3.75C8.125 3.91576 8.19085 4.07473 8.30806 4.19194C8.42527 4.30915 8.58424 4.375 8.75 4.375H9.375V12.5C9.37497 12.5917 9.3951 12.6823 9.43399 12.7653C9.47287 12.8483 9.52955 12.9218 9.6 12.9805L16.875 19.043V20.957L9.6 27.0195C9.52955 27.0782 9.47287 27.1517 9.43399 27.2347C9.3951 27.3177 9.37497 27.4083 9.375 27.5V35.625H8.75C8.58424 35.625 8.42527 35.6908 8.30806 35.8081C8.19085 35.9253 8.125 36.0842 8.125 36.25V38.75C8.125 38.9158 8.19085 39.0747 8.30806 39.1919C8.42527 39.3092 8.58424 39.375 8.75 39.375H31.25C31.4158 39.375 31.5747 39.3092 31.6919 39.1919C31.8092 39.0747 31.875 38.9158 31.875 38.75V36.25C31.875 36.0842 31.8092 35.9253 31.6919 35.8081C31.5747 35.6908 31.4158 35.625 31.25 35.625H30.625V27.5C30.625 27.4083 30.6049 27.3177 30.566 27.2347C30.5271 27.1517 30.4704 27.0782 30.4 27.0195L23.125 20.957V19.043L30.4 12.9805ZM9.375 3.125V1.875H30.625V3.125H9.375ZM10.625 32.9641C11.9906 32.5727 16.3625 31.4859 19.8281 32.4758C23.3898 33.4938 27.6602 32.9305 29.375 32.632V35.625H10.625V32.9641ZM30.625 36.875V38.125H9.375V36.875H30.625ZM22.1 21.7305L29.375 27.793V31.3602C28.0008 31.6094 23.9859 32.2031 20.625 31.393V26.875C20.625 26.7092 20.5592 26.5503 20.4419 26.4331C20.3247 26.3158 20.1658 26.25 20 26.25C19.8342 26.25 19.6753 26.3158 19.5581 26.4331C19.4408 26.5503 19.375 26.7092 19.375 26.875V31.0805C16.0102 30.3945 12.2555 31.2203 10.625 31.6641V27.793L17.9 21.7305C17.9705 21.6718 18.0271 21.5983 18.066 21.5153C18.1049 21.4323 18.125 21.3417 18.125 21.25V18.75C18.125 18.6583 18.1049 18.5677 18.066 18.4847C18.0271 18.4017 17.9705 18.3282 17.9 18.2695L10.625 12.207V4.375H29.375V12.207L22.1 18.2695C22.0295 18.3282 21.9729 18.4017 21.934 18.4847C21.8951 18.5677 21.875 18.6583 21.875 18.75V21.25C21.875 21.3417 21.8951 21.4323 21.934 21.5153C21.9729 21.5983 22.0295 21.6718 22.1 21.7305Z" fill="white"/>
<path d="M21.3258 11.9509C21.3838 11.8928 21.4299 11.8239 21.4613 11.7481C21.4927 11.6723 21.5089 11.591 21.5089 11.5089C21.5089 11.4268 21.4927 11.3455 21.4613 11.2697C21.4299 11.1938 21.3838 11.1249 21.3258 11.0669L20 9.74119L20.4419 9.29916L21.7677 10.625C21.8849 10.7422 22.0439 10.8081 22.2097 10.8081C22.3754 10.8081 22.5344 10.7422 22.6516 10.625C22.7688 10.5078 22.8347 10.3488 22.8347 10.1831C22.8347 10.0173 22.7688 9.85832 22.6516 9.74111L22.2098 9.29923C22.2678 9.2412 22.3138 9.17229 22.3452 9.09646C22.3766 9.02063 22.3928 8.93936 22.3928 8.85728C22.3928 8.7752 22.3766 8.69393 22.3452 8.6181C22.3138 8.54227 22.2678 8.47337 22.2098 8.41533C22.1517 8.35729 22.0828 8.31125 22.007 8.27984C21.9312 8.24843 21.8499 8.23226 21.7678 8.23226C21.6857 8.23226 21.6044 8.24843 21.5286 8.27984C21.4528 8.31125 21.3839 8.35729 21.3258 8.41533L20.8838 7.97337C20.7666 7.85618 20.6076 7.79034 20.4419 7.79034C20.2762 7.79034 20.1172 7.85618 20 7.97337L18.6742 9.29916C18.6162 9.35719 18.5701 9.4261 18.5387 9.50194C18.5073 9.57778 18.4911 9.65906 18.4911 9.74115C18.4911 9.82324 18.5073 9.90452 18.5387 9.98036C18.5701 10.0562 18.6162 10.1251 18.6742 10.1831L20 11.5088L19.558 11.9509L18.2323 10.625C18.115 10.5078 17.9561 10.442 17.7903 10.442C17.6245 10.442 17.4656 10.5078 17.3483 10.625C17.2311 10.7422 17.1653 10.9012 17.1653 11.067C17.1653 11.2327 17.2311 11.3917 17.3483 11.5089L17.7902 11.9508C17.673 12.068 17.6072 12.227 17.6072 12.3927C17.6072 12.5585 17.673 12.7175 17.7902 12.8347C17.9074 12.9519 18.0664 13.0178 18.2322 13.0178C18.3979 13.0178 18.5569 12.9519 18.6741 12.8347L19.1162 13.2767C19.2334 13.3938 19.3923 13.4597 19.5581 13.4597C19.7238 13.4597 19.8828 13.3938 20 13.2767L21.3258 11.9509Z" fill="white"/>
<path d="M20 23.125C19.8342 23.125 19.6753 23.1908 19.5581 23.3081C19.4408 23.4253 19.375 23.5842 19.375 23.75V24.375C19.375 24.5408 19.4408 24.6997 19.5581 24.8169C19.6753 24.9342 19.8342 25 20 25C20.1658 25 20.3247 24.9342 20.4419 24.8169C20.5592 24.6997 20.625 24.5408 20.625 24.375V23.75C20.625 23.5842 20.5592 23.4253 20.4419 23.3081C20.3247 23.1908 20.1658 23.125 20 23.125Z" fill="white"/>
<path d="M23.9774 6.64766C23.4008 6.07021 22.7056 5.62511 21.9398 5.34323C21.1741 5.06135 20.3562 4.94945 19.5428 5.01529C18.7295 5.08113 17.9403 5.32313 17.2298 5.72451C16.5194 6.12589 15.9048 6.67703 15.4286 7.33969C14.9525 8.00235 14.6262 8.76068 14.4725 9.56205C14.3187 10.3634 14.3411 11.1886 14.5382 11.9805C14.7353 12.7723 15.1023 13.5118 15.6137 14.1476C16.1252 14.7834 16.7688 15.3003 17.5 15.6625V16.875C17.5 17.0408 17.5659 17.1997 17.6831 17.3169C17.8003 17.4342 17.9593 17.5 18.125 17.5C18.2908 17.5 18.4498 17.4342 18.567 17.3169C18.6842 17.1997 18.75 17.0408 18.75 16.875V16.1063C18.9562 16.1531 19.1649 16.1883 19.375 16.2117V21.875C19.375 22.0408 19.4409 22.1997 19.5581 22.3169C19.6753 22.4342 19.8343 22.5 20 22.5C20.1658 22.5 20.3248 22.4342 20.442 22.3169C20.5592 22.1997 20.625 22.0408 20.625 21.875V16.2117C20.8352 16.1883 21.0438 16.1531 21.25 16.1063V16.25C21.25 16.4158 21.3159 16.5747 21.4331 16.6919C21.5503 16.8092 21.7093 16.875 21.875 16.875C22.0408 16.875 22.1998 16.8092 22.317 16.6919C22.4342 16.5747 22.5 16.4158 22.5 16.25V15.6625C23.2997 15.2659 23.9936 14.6846 24.5241 13.9667C25.0546 13.2488 25.4066 12.4149 25.551 11.534C25.6954 10.6531 25.6279 9.75048 25.3543 8.90079C25.0807 8.05111 24.6087 7.27877 23.9774 6.64766ZM23.0938 13.7188C22.378 14.4347 21.4361 14.8803 20.4286 14.9797C19.4211 15.079 18.4103 14.8259 17.5685 14.2636C16.7267 13.7012 16.1059 12.8643 15.812 11.8955C15.518 10.9268 15.5691 9.88605 15.9564 8.95071C16.3438 8.01536 17.0435 7.24327 17.9363 6.766C18.8292 6.28872 19.8598 6.13579 20.8528 6.33327C21.8457 6.53075 22.7395 7.06641 23.3817 7.84898C24.024 8.63156 24.375 9.61262 24.375 10.625C24.3745 11.7852 23.9137 12.8978 23.0938 13.7188Z" fill="white"/>
<path d="M21.875 28.125C21.875 28.2908 21.9408 28.4497 22.0581 28.5669C22.1753 28.6842 22.3342 28.75 22.5 28.75C22.6658 28.75 22.8247 28.6842 22.9419 28.5669C23.0592 28.4497 23.125 28.2908 23.125 28.125V24.375C23.125 24.2092 23.0592 24.0503 22.9419 23.9331C22.8247 23.8158 22.6658 23.75 22.5 23.75C22.3342 23.75 22.1753 23.8158 22.0581 23.9331C21.9408 24.0503 21.875 24.2092 21.875 24.375V28.125Z" fill="white"/>
</svg>
