<svg width="22" height="22" viewBox="0 0 22 22" fill="none" xmlns="http://www.w3.org/2000/svg">
<path d="M11 2.47397C13.7769 2.47397 14.1058 2.48457 15.2025 2.53458C16.3357 2.58629 17.5036 2.84491 18.3293 3.67058C19.1629 4.50412 19.4136 5.66063 19.4655 6.79756C19.5155 7.89423 19.5261 8.22313 19.5261 11.0001C19.5261 13.777 19.5155 14.1059 19.4655 15.2026C19.414 16.33 19.1502 17.5086 18.3295 18.3294C17.4955 19.1634 16.3404 19.4136 15.2024 19.4656C14.1059 19.5156 13.7771 19.5262 10.9999 19.5262C8.22281 19.5262 7.89395 19.5156 6.7974 19.4656C5.67871 19.4145 4.48466 19.1436 3.67058 18.3296C2.84142 17.5004 2.58601 16.3331 2.53442 15.2026C2.48437 14.1059 2.4738 13.777 2.4738 11.0001C2.4738 8.22313 2.48441 7.89419 2.53442 6.79752C2.58568 5.67416 2.85279 4.48836 3.67041 3.6707C4.50237 2.8387 5.66266 2.58634 6.7974 2.53454C7.89411 2.48457 8.22305 2.47397 11 2.47397ZM11 0.600098C8.17552 0.600098 7.82135 0.612041 6.71205 0.66266C5.10379 0.73607 3.50799 1.18319 2.34551 2.34559C1.17868 3.51242 0.735866 5.10513 0.662538 6.71221C0.611919 7.82148 0.599976 8.1756 0.599976 11.0001C0.599976 13.8246 0.611919 14.1787 0.662538 15.288C0.735826 16.8937 1.18538 18.4944 2.34547 19.6545C3.51088 20.82 5.10683 21.2642 6.71205 21.3375C7.82135 21.3882 8.17552 21.4001 11 21.4001C13.8245 21.4001 14.1786 21.3882 15.2879 21.3375C16.8944 21.2642 18.4933 20.8157 19.6544 19.6546C20.8217 18.4874 21.2641 16.8954 21.3374 15.288C21.388 14.1787 21.4 13.8246 21.4 11.0001C21.4 8.17564 21.388 7.82148 21.3374 6.71217C21.2641 5.1048 20.8161 3.5073 19.6545 2.34567C18.4907 1.18189 16.8902 0.735785 15.2879 0.66266C14.1786 0.612041 13.8245 0.600098 11 0.600098Z" fill="white"/>
<path d="M11 5.65918C8.05049 5.65918 5.65942 8.0502 5.65942 10.9997C5.65942 13.9492 8.05049 16.3403 11 16.3403C13.9495 16.3403 16.3405 13.9492 16.3405 10.9997C16.3405 8.05025 13.9495 5.65918 11 5.65918ZM11 14.4664C9.08541 14.4664 7.53333 12.9143 7.53333 10.9997C7.53333 9.08517 9.08541 7.53309 11 7.53309C12.9146 7.53309 14.4666 9.08517 14.4666 10.9997C14.4666 12.9143 12.9146 14.4664 11 14.4664Z" fill="white"/>
</svg>
