<svg width="40" height="40" viewBox="0 0 40 40" fill="none" xmlns="http://www.w3.org/2000/svg">
<path d="M9.62847 14.2694H6.88447C6.59025 14.2694 6.35114 14.0303 6.35114 13.736V10.9929C6.35114 10.6987 6.59025 10.4596 6.88447 10.4596C7.17869 10.4596 7.4178 10.6987 7.4178 10.9929V13.2027H9.62758C9.9218 13.2027 10.1609 13.4418 10.1609 13.736C10.1609 14.0303 9.92269 14.2694 9.62847 14.2694Z" fill="white"/>
<path d="M19.9707 28.8027C19.9564 28.8027 19.9431 28.8027 19.9289 28.8027C16.9564 28.7805 14.5378 26.3165 14.5378 23.3094V19.9414C14.5378 19.6471 14.7769 19.408 15.0711 19.408H24.8684C25.1627 19.408 25.4018 19.6471 25.4018 19.9414V23.3707C25.4018 24.8294 24.832 26.1982 23.7964 27.2258C22.7716 28.2436 21.4133 28.8027 19.9707 28.8027ZM15.6044 20.4747V23.3094C15.6044 25.7325 17.5476 27.7182 19.9369 27.736H19.9707C21.1307 27.736 22.2222 27.2871 23.0462 26.4685C23.8782 25.6427 24.336 24.5422 24.336 23.3698V20.4738L15.6044 20.4747Z" fill="white"/>
<path d="M30.5298 39.416H9.30134C9.00712 39.416 8.76801 39.1769 8.76801 38.8827V34.9902C8.76801 33.6631 9.62223 32.5147 10.8933 32.1333L17.0791 30.2933L17.72 27.8195C17.7938 27.5342 18.0853 27.3627 18.3698 27.4373C18.6551 27.5111 18.8258 27.8027 18.752 28.0871L18.0356 30.8524C17.9884 31.0338 17.8507 31.1769 17.6711 31.2302L11.1991 33.1555C10.3831 33.4 9.83467 34.1378 9.83467 34.9902V38.3493H29.9965V34.9902C29.9965 34.1378 29.448 33.4 28.6311 33.1547L22.2658 31.2284C22.088 31.1742 21.9502 31.032 21.904 30.8515L21.1876 28.0862C21.1138 27.8009 21.2853 27.5102 21.5698 27.4364C21.8551 27.3627 22.1458 27.5342 22.2196 27.8187L22.8604 30.2942L28.9387 32.1333C30.2089 32.5147 31.0631 33.6622 31.0631 34.9902V38.8827C31.0631 39.1778 30.824 39.416 30.5298 39.416Z" fill="white"/>
<path d="M19.9698 32.2667C18.9022 32.2667 17.8978 31.8507 17.1431 31.096C16.9351 30.888 16.9351 30.5502 17.1431 30.3422C17.3511 30.1342 17.6889 30.1342 17.8978 30.3422C18.4516 30.896 19.1876 31.2009 19.9698 31.2009C20.7529 31.2009 21.4889 30.896 22.0418 30.3422C22.2498 30.1342 22.5876 30.1342 22.7956 30.3422C23.0036 30.5502 23.0036 30.888 22.7956 31.096C22.0418 31.8507 21.0373 32.2667 19.9698 32.2667Z" fill="white"/>
<path d="M14.2542 39.416C14.1431 39.416 14.0302 39.3813 13.9342 39.3093C13.6987 39.1324 13.6507 38.7982 13.8276 38.5626L15.8933 35.808L14.832 35.2773C14.6996 35.2106 14.6 35.0924 14.5582 34.9493C14.5165 34.8062 14.5369 34.6533 14.6133 34.5253L17.0631 30.4426C17.2151 30.1902 17.5422 30.1084 17.7947 30.2595C18.0471 30.4106 18.1289 30.7386 17.9778 30.9911L15.8249 34.5795L16.9422 35.1386C17.0836 35.2097 17.1867 35.3395 17.2231 35.4933C17.2596 35.6471 17.2258 35.8098 17.1307 35.936L14.6809 39.2017C14.5769 39.3431 14.416 39.416 14.2542 39.416Z" fill="white"/>
<path d="M25.6853 39.416C25.5235 39.416 25.3627 39.3422 25.2587 39.2027L22.8089 35.9369C22.7138 35.8107 22.68 35.648 22.7164 35.4942C22.7529 35.3404 22.856 35.2107 22.9973 35.1396L24.1155 34.5804L21.9627 30.992C21.8115 30.7396 21.8933 30.4116 22.1458 30.2604C22.3982 30.1093 22.7262 30.1911 22.8773 30.4436L25.3271 34.5262C25.4035 34.6533 25.4231 34.8071 25.3822 34.9502C25.3404 35.0924 25.2418 35.2116 25.1084 35.2782L24.0471 35.8089L26.1129 38.5636C26.2898 38.7991 26.2418 39.1333 26.0062 39.3102C25.9093 39.3813 25.7964 39.416 25.6853 39.416Z" fill="white"/>
<path d="M17.52 20.4747H15.5378C14.0862 20.4747 12.9049 19.2933 12.9049 17.8418V16.0222C12.9049 15.728 13.144 15.4889 13.4382 15.4889H14.9529C16.6622 15.4889 18.0534 16.88 18.0534 18.5893V19.9413C18.0534 20.2356 17.8151 20.4747 17.52 20.4747ZM13.9716 16.5556V17.8418C13.9716 18.7049 14.6738 19.408 15.5378 19.408H16.9876V18.5893C16.9876 17.4676 16.0756 16.5556 14.9538 16.5556H13.9716Z" fill="white"/>
<path d="M24.2258 20.4747H17.52C17.2258 20.4747 16.9867 20.2356 16.9867 19.9413V17.5964C16.9867 16.4338 17.9325 15.4889 19.0942 15.4889H27.3174C27.6116 15.4889 27.8507 15.728 27.8507 16.0222V16.8489C27.8516 18.848 26.2249 20.4747 24.2258 20.4747ZM18.0534 19.408H24.2258C25.6365 19.408 26.7849 18.2604 26.7849 16.8489V16.5556H19.0951C18.5209 16.5556 18.0542 17.0231 18.0542 17.5964L18.0534 19.408Z" fill="white"/>
<path d="M6.42758 18.384C3.10846 18.384 0.40802 15.6835 0.40802 12.3635C0.40802 9.04355 3.10846 6.34399 6.42758 6.34399C9.74669 6.34399 12.4471 9.04444 12.4471 12.3635C12.4471 15.6827 9.74669 18.384 6.42758 18.384ZM6.42758 7.41155C3.69602 7.41155 1.47469 9.63377 1.47469 12.3653C1.47469 15.0969 3.69691 17.3191 6.42758 17.3191C9.15824 17.3191 11.3805 15.0969 11.3805 12.3653C11.3805 9.63377 9.15913 7.41155 6.42758 7.41155Z" fill="white"/>
<path d="M19.9156 12.4409C16.5964 12.4409 13.896 9.74046 13.896 6.42135C13.896 3.10224 16.5964 0.401794 19.9164 0.401794C23.2364 0.401794 25.9369 3.10224 25.9369 6.42135C25.9369 9.74046 23.2347 12.4409 19.9156 12.4409ZM19.9156 1.46757C17.184 1.46757 14.9627 3.68979 14.9627 6.42135C14.9627 9.15291 17.1849 11.3742 19.9164 11.3742C22.648 11.3742 24.8702 9.15202 24.8702 6.42135C24.8702 3.69068 22.6462 1.46757 19.9156 1.46757Z" fill="white"/>
<path d="M3.68446 17.6223C3.39023 17.6223 3.15112 17.3832 3.15112 17.0889V10.9929C3.15112 10.6987 3.39023 10.4596 3.68446 10.4596H6.88535C7.02668 10.4596 7.16268 10.5156 7.26223 10.616L10.0053 13.3591C10.1058 13.4596 10.1618 13.5947 10.1618 13.736V16.784C10.1618 17.0783 9.92268 17.3174 9.62846 17.3174C9.33423 17.3174 9.09512 17.0783 9.09512 16.784V13.9565L6.66401 11.5254H4.21779V17.088C4.21779 17.3832 3.97868 17.6223 3.68446 17.6223Z" fill="white"/>
<path d="M7.79911 16.0978H5.51289C5.21866 16.0978 4.97955 15.8587 4.97955 15.5645C4.97955 15.2702 5.21866 15.0311 5.51289 15.0311H7.79911C8.09333 15.0311 8.33244 15.2702 8.33244 15.5645C8.33244 15.8587 8.09333 16.0978 7.79911 16.0978Z" fill="white"/>
<path d="M33.4036 18.384C30.0845 18.384 27.3831 15.6835 27.3831 12.3635C27.3831 9.04355 30.0836 6.34399 33.4036 6.34399C36.7236 6.34399 39.424 9.04444 39.424 12.3635C39.424 15.6827 36.7227 18.384 33.4036 18.384ZM33.4036 7.41155C30.672 7.41155 28.4498 9.63377 28.4498 12.3653C28.4498 15.0969 30.672 17.3191 33.4036 17.3191C36.1351 17.3191 38.3573 15.0969 38.3573 12.3653C38.3573 9.63377 36.1351 7.41155 33.4036 7.41155Z" fill="white"/>
<path d="M19.9156 9.24H18.7725C18.4782 9.24 18.2391 9.00089 18.2391 8.70667C18.2391 8.41245 18.4782 8.17334 18.7725 8.17334H19.9156C20.2516 8.17334 20.5254 7.89956 20.5254 7.56356C20.5254 7.22756 20.2516 6.95378 19.9156 6.95378C18.9911 6.95378 18.2391 6.20178 18.2391 5.27734C18.2391 4.35289 18.9911 3.60089 19.9156 3.60089H21.0587C21.3529 3.60089 21.592 3.84 21.592 4.13422C21.592 4.42845 21.3529 4.66756 21.0587 4.66756H19.9156C19.5796 4.66756 19.3058 4.94134 19.3058 5.27734C19.3058 5.61334 19.5796 5.88711 19.9156 5.88711C20.84 5.88711 21.592 6.63911 21.592 7.56356C21.592 8.488 20.84 9.24 19.9156 9.24Z" fill="white"/>
<path d="M19.9156 10.6116C19.6214 10.6116 19.3823 10.3725 19.3823 10.0782V8.70667C19.3823 8.41245 19.6214 8.17334 19.9156 8.17334C20.2098 8.17334 20.4489 8.41245 20.4489 8.70667V10.0782C20.4489 10.3725 20.2098 10.6116 19.9156 10.6116Z" fill="white"/>
<path d="M20.1441 4.66759C19.8498 4.66759 19.6107 4.42848 19.6107 4.13426V2.7627C19.6107 2.46848 19.8498 2.22937 20.1441 2.22937C20.4383 2.22937 20.6774 2.46848 20.6774 2.7627V4.13426C20.6774 4.42937 20.4383 4.66759 20.1441 4.66759Z" fill="white"/>
<path d="M33.4036 13.8125C33.1094 13.8125 32.8702 13.5734 32.8702 13.2791V10.0783C32.8702 9.78403 33.1094 9.54492 33.4036 9.54492C33.6978 9.54492 33.9369 9.78403 33.9369 10.0783V13.2791C33.9369 13.5734 33.6978 13.8125 33.4036 13.8125Z" fill="white"/>
<path d="M36.1467 12.8978H32.032C31.7378 12.8978 31.4987 12.6587 31.4987 12.3644C31.4987 12.0702 31.7378 11.8311 32.032 11.8311H36.1467C36.4409 11.8311 36.68 12.0702 36.68 12.3644C36.68 12.6587 36.4409 12.8978 36.1467 12.8978Z" fill="white"/>
</svg>
