<svg width="22" height="22" viewBox="0 0 22 22" fill="none" xmlns="http://www.w3.org/2000/svg">
<path d="M16.9514 21.7998C17.0441 21.7998 21.2371 21.7989 21.1453 21.7989C21.5179 21.7989 21.8203 21.4965 21.8203 21.1239C21.5053 14.0527 23.4781 6.59082 16.1162 6.59082C14.7005 6.59082 13.5728 7.07412 12.7601 7.71311C12.7601 6.39822 11.339 7.12542 8.05853 6.93012C7.68594 6.93012 7.38354 7.23252 7.38354 7.60511C7.65534 20.3544 6.77694 21.7989 8.05853 21.7989H12.2525C13.4702 21.7989 12.6953 20.0817 12.9275 14.4298C12.9275 12.0952 13.6025 11.638 14.7689 11.638C16.0595 11.638 16.2764 12.5344 16.2764 14.5432C16.5077 20.0934 15.7382 21.7998 16.9514 21.7998ZM14.7689 10.288C10.727 10.288 11.5775 14.7322 11.5775 20.4489H8.73353V8.28011H11.4101V9.4483C11.4101 10.0963 12.3974 10.4149 12.7412 9.7633C13.184 8.9227 14.3342 7.94081 16.1162 7.94081C19.2905 7.94081 20.4703 9.5005 20.4703 13.6972V20.4498H17.6264C17.6264 14.0203 18.3068 10.288 14.7689 10.288Z" fill="white"/>
<path d="M1.23023 6.93094C-0.0477559 6.93094 0.827037 8.35743 0.55524 21.1247C0.55524 21.4973 0.857637 21.7997 1.23023 21.7997H5.4287C6.70669 21.7997 5.8319 20.3732 6.1037 7.60593C6.1037 6.44044 4.41081 7.12804 1.23023 6.93094ZM4.75371 20.4497H1.90523V8.28093H4.75371V20.4497Z" fill="white"/>
<path d="M3.32726 0.200195C-0.79111 0.200195 -0.76591 6.43625 3.32726 6.43625C7.41773 6.43625 7.45013 0.200195 3.32726 0.200195ZM3.32726 5.08626C1.01608 5.08626 0.994476 1.55019 3.32726 1.55019C5.66454 1.55019 5.63484 5.08626 3.32726 5.08626Z" fill="white"/>
</svg>
